<svg height="580" viewBox="0 0 1200 580" width="1200" xmlns="http://www.w3.org/2000/svg"><path d="m734.567 34.372c-28.692 61.724-23.266 100.422 16.275 116.094 59.313 23.508 200.347 32.911 259.299 83.906 58.95 50.994 238.697 11.572 269.438-75.95s86.09-222.422-205.771-222.422c-194.576 0-307.654 32.79-339.24 98.372z" fill="#fffa72"/><path d="m734.567 34.372c-28.692 61.724-23.266 100.422 16.275 116.094 59.313 23.508 200.347 32.911 259.299 83.906 58.95 50.994 238.697 11.572 269.438-75.95s86.09-222.422-205.771-222.422c-194.576 0-307.654 32.79-339.24 98.372z" fill="#0f225e" transform="matrix(2.8 0 1.61658075 2.8 -1800 60)"/><path d="m734.567 34.372c-28.692 61.724-23.266 100.422 16.275 116.094 59.313 23.508 200.347 32.911 259.299 83.906 58.95 50.994 238.697 11.572 269.438-75.95s86.09-222.422-205.771-222.422c-194.576 0-307.654 32.79-339.24 98.372z" fill="#1b346c" transform="matrix(2.65 0 1.37950268 2.65 -1650 55)"/><path d="m734.567 34.372c-28.692 61.724-23.266 100.422 16.275 116.094 59.313 23.508 200.347 32.911 259.299 83.906 58.95 50.994 238.697 11.572 269.438-75.95s86.09-222.422-205.771-222.422c-194.576 0-307.654 32.79-339.24 98.372z" fill="#27457a" transform="matrix(2.5 0 1.16576915 2.5 -1500 50)"/><path d="m734.567 34.372c-28.692 61.724-23.266 100.422 16.275 116.094 59.313 23.508 200.347 32.911 259.299 83.906 58.95 50.994 238.697 11.572 269.438-75.95s86.09-222.422-205.771-222.422c-194.576 0-307.654 32.79-339.24 98.372z" fill="#335788" transform="matrix(2.35 0 .97340187 2.35 -1350 45)"/><path d="m734.567 34.372c-28.692 61.724-23.266 100.422 16.275 116.094 59.313 23.508 200.347 32.911 259.299 83.906 58.95 50.994 238.697 11.572 269.438-75.95s86.09-222.422-205.771-222.422c-194.576 0-307.654 32.79-339.24 98.372z" fill="#3f6896" transform="matrix(2.2 0 .80073452 2.2 -1200 40)"/><path d="m734.567 34.372c-28.692 61.724-23.266 100.422 16.275 116.094 59.313 23.508 200.347 32.911 259.299 83.906 58.95 50.994 238.697 11.572 269.438-75.95s86.09-222.422-205.771-222.422c-194.576 0-307.654 32.79-339.24 98.372z" fill="#4b7aa5" transform="matrix(2.05 0 .64636252 2.05 -1050 35)"/><path d="m734.567 34.372c-28.692 61.724-23.266 100.422 16.275 116.094 59.313 23.508 200.347 32.911 259.299 83.906 58.95 50.994 238.697 11.572 269.438-75.95s86.09-222.422-205.771-222.422c-194.576 0-307.654 32.79-339.24 98.372z" fill="#568bb3" transform="matrix(1.9 0 .50910347 1.9 -900 30)"/><path d="m734.567 34.372c-28.692 61.724-23.266 100.422 16.275 116.094 59.313 23.508 200.347 32.911 259.299 83.906 58.95 50.994 238.697 11.572 269.438-75.95s86.09-222.422-205.771-222.422c-194.576 0-307.654 32.79-339.24 98.372z" fill="#629cc1" transform="matrix(1.75 0 .38796566 1.75 -750 25)"/><path d="m734.567 34.372c-28.692 61.724-23.266 100.422 16.275 116.094 59.313 23.508 200.347 32.911 259.299 83.906 58.95 50.994 238.697 11.572 269.438-75.95s86.09-222.422-205.771-222.422c-194.576 0-307.654 32.79-339.24 98.372z" fill="#6eaecf" transform="matrix(1.6 0 .28212317 1.6 -600 20)"/><path d="m734.567 34.372c-28.692 61.724-23.266 100.422 16.275 116.094 59.313 23.508 200.347 32.911 259.299 83.906 58.95 50.994 238.697 11.572 269.438-75.95s86.09-222.422-205.771-222.422c-194.576 0-307.654 32.79-339.24 98.372z" fill="#7abfdd" transform="matrix(1.45 0 .19089612 1.45 -450 15)"/><path d="m734.567 34.372c-28.692 61.724-23.266 100.422 16.275 116.094 59.313 23.508 200.347 32.911 259.299 83.906 58.95 50.994 238.697 11.572 269.438-75.95s86.09-222.422-205.771-222.422c-194.576 0-307.654 32.79-339.24 98.372z" fill="#86d1eb" transform="matrix(1.3 0 .11373526 1.3 -300 10)"/><path d="m734.567 34.372c-28.692 61.724-23.266 100.422 16.275 116.094 59.313 23.508 200.347 32.911 259.299 83.906 58.95 50.994 238.697 11.572 269.438-75.95s86.09-222.422-205.771-222.422c-194.576 0-307.654 32.79-339.24 98.372z" fill="#92e2f9" transform="matrix(1.15 0 .05021008 1.15 -150 5)"/></svg>